<?xml version="1.0" encoding="UTF-8"?>
<svg id="Layer_1" xmlns="http://www.w3.org/2000/svg" version="1.1" viewBox="0 0 778.7 67.6">
  <!-- Generator: Adobe Illustrator 29.3.1, SVG Export Plug-In . SVG Version: 2.1.0 Build 151)  -->
  <defs>
    <style>
      .st0 {
        fill: #2b2b2a;
      }
    </style>
  </defs>
  <path class="st0" d="M437.4,14.4l-13.1,41.4h25.5l1.3-4h-21l11.8-37.4h-4.5ZM482.4,19.6h.1l.5,21.1h-14.6l14-21.1ZM481.4,14.4l-27.8,41.4h4.8l7.4-11.2h17.3l.3,11.2h4.5l-1.6-41.4h-4.8ZM534.2,14.4l-10.8,34.1h-.1l-10.8-34.1h-4.4l-13.1,41.4h4.3l10.8-34.1h.1l10.7,34.1h4.4l13.2-41.4h-4.3ZM554.7,14.4l-8.1,6.2-9,28.4,4.7,6.8h17.9l8.1-6.1,4.9-15.5h-13.8l-1.3,4h9.3l-3.1,9.6-5.2,4h-13.8l-2.8-4,8.1-25.4,5.3-4h14.1l2.6,3.7-.7,2.3h4.5l1.1-3.5-4.5-6.6h-18.2ZM588.9,14.4l-13.1,41.4h26.7l1.3-4h-22.2l4.7-14.8h20.5l1.3-4h-20.5l4.6-14.5h22.2l1.3-4h-26.7ZM624.5,14.4l-13.1,41.4h25.5l1.3-4h-21l11.8-37.4h-4.5ZM669.5,19.6h.1l.5,21.1h-14.6l14-21.1ZM668.5,14.4l-27.8,41.4h4.8l7.4-11.2h17.3l.3,11.2h4.5l-1.6-41.4h-4.8ZM721.3,14.4l-10.8,34.1h-.1l-10.8-34.1h-4.4l-13.1,41.4h4.3l10.8-34.1h.1l10.7,34.1h4.4l13.2-41.4h-4.3ZM739.5,18.4h17.3l2.8,4-8.1,25.4-5.2,4h-17.3l10.5-33.4ZM736.2,14.4l-13.1,41.4h24.4l7.9-6,9-28.6-4.7-6.8h-23.5Z"/>
  <path class="st0" d="M27.1,14.1l-13.2,41.7h27.8l1.8-5.9h-20.9l11.3-35.8h-6.9ZM56.3,46.5l7.4-23.1,4.5-3.3h13.5l2.3,3.3-7.4,23.1-4.4,3.3h-13.5l-2.3-3.3ZM66,14.1l-8.3,6.3-9,28.2,4.9,7.2h20.7l8.1-6.1,9-28.4-4.9-7.1h-20.6ZM126.9,14.1l-15.9,17.9h-7l5.6-17.9h-6.9l-13.2,41.7h6.9l5.7-17.8h7.9l5.5,17.8h7.3l-6.4-20.9,18.6-20.8h-8.2ZM154.1,22.5h.1l.4,17.6h-12.2l11.6-17.6ZM153.5,14.1l-28.3,41.7h7.1l6.7-9.9h15.6l.3,9.9h7l-1.9-41.7h-6.6ZM181.1,14.1l-13.2,41.7h27.8l1.8-5.9h-20.9l11.3-35.8h-6.9ZM215.2,14.1l-13.2,41.7h27.8l1.8-5.9h-20.9l11.3-35.8h-6.9ZM249.7,14.1l-13.2,41.7h6.9l13.2-41.7h-6.9ZM271.3,14.1l-7.5,5.7-3.5,11.1,4.4,6.5h15.5l1.5,2.3-2.5,7.7-3.1,2.4h-12.9l-1.6-2.3,1-3.2h-6.8l-1.6,4.8,4.5,6.6h18.9l7.4-5.7,3.9-12.1-4.4-6.5h-15.5l-1.6-2.3,2.2-6.9,3-2.3h12.4l1.6,2.3-1,3.2h6.8l1.6-4.9-4.6-6.6h-18.3ZM300.6,14.1l-1.8,5.9h12.5l-11.3,35.8h6.9l11.3-35.8h12.4l1.9-5.9h-31.9ZM339,14.1l-13.2,41.7h29l1.8-5.9h-22.1l3.9-12.1h20.4l1.8-5.8h-20.4l3.8-11.9h22.1l1.8-5.9h-29ZM401.9,14.1l-9.6,30.3h-.1l-10-30.3h-6.3l-13.2,41.7h6.6l9.6-30.3h.1l10,30.3h6.3l13.2-41.7h-6.6Z"/>
</svg>